# xmcd
#
# Track frame offsets: 
#        150
#        18810
#        31485
#        45210
#        55744
#        72244
#        88969
#        113344
#        123319
#        135094
#        150530
#        161405
#
# Disc length: 2428 seconds
#
# Revision: 0
# Processed by: cddbd v1.5.2PL0 Copyright (c) Steve Scherf et al.
# Submitted via: ExactAudioCopy v0.99pb3
#
DISCID=83097a0c
DTITLE=Redneck 28 - Spirit of the South [CD]
DYEAR=2013
DGENRE=Redneck Country
TTITLE0=N***** Likes Chicken
TTITLE1=Duelling Banjos
TTITLE2=Whiteman Marches On
TTITLE3=Foggy Mountain
TTITLE4=I am Viking
TTITLE5=Swampy Rebel
TTITLE6=Hold On
TTITLE7=Run N*****, Run
TTITLE8=Stand Up
TTITLE9=Mississipi
TTITLE10=N***** Hating Me
TTITLE11=Road to Valhalla
EXTD=
EXTT0=
EXTT1=
EXTT2=
EXTT3=
EXTT4=
EXTT5=
EXTT6=
EXTT7=
EXTT8=
EXTT9=
EXTT10=
EXTT11=
PLAYORDER=
